<svg width="27" height="27" viewBox="0 0 27 27" fill="none" xmlns="http://www.w3.org/2000/svg">
<path d="M18.803 17.9091C19.7104 17.9091 20.391 17.423 20.6178 16.8396H22.6271C22.0762 18.6221 20.8447 19.6267 18.7382 19.6267C16.178 19.6267 14.4604 17.9091 14.4604 15.2517C14.4604 12.6591 16.3076 10.8443 18.7382 10.8443C21.3632 10.8443 22.9512 12.9832 22.7891 15.8026H16.7614C16.7938 17.1313 17.4419 17.9091 18.803 17.9091ZM9.66413 19.3998H4.09006V7.92761H9.50209C11.6734 7.92761 13.1965 8.57576 13.1965 10.7471C13.1965 12.0434 12.5808 12.6915 11.641 13.1452C12.9373 13.5017 13.7151 14.4739 13.7151 16.0619C13.7151 18.3952 11.8354 19.3998 9.66413 19.3998ZM9.34006 17.4554C10.4419 17.4554 11.1873 17.0665 11.1873 15.9322C11.1873 14.7656 10.5067 14.2795 9.37246 14.2795H6.61784V17.4554H9.34006ZM18.6734 12.5619C17.5715 12.5619 16.8262 13.2748 16.7614 14.3443H20.4882C20.3586 13.2424 19.8076 12.5619 18.6734 12.5619ZM9.17802 12.5619C10.0854 12.5619 10.7336 12.1406 10.7336 11.2008C10.7336 10.1961 9.98821 9.87206 8.98358 9.87206H6.61784V12.5619H9.17802ZM20.9743 8.67298V9.80724H16.3076V8.67298H20.9743Z" fill="white"/>
</svg>
