<svg width="37" height="37" viewBox="0 0 37 37" fill="none" xmlns="http://www.w3.org/2000/svg">
<g clip-path="url(#clip0_391_521)">
<path fill-rule="evenodd" clip-rule="evenodd" d="M4.54045 4.21233C4.47185 4.21198 4.40387 4.22519 4.34039 4.2512C4.27692 4.27721 4.21921 4.31551 4.17059 4.36389C4.12196 4.41227 4.08337 4.46978 4.05704 4.53312C4.03071 4.59646 4.01716 4.66438 4.01716 4.73298V27.2528H27.5888V21.0024C27.5888 20.4767 27.7976 19.9725 28.1694 19.6008C28.5411 19.2291 29.0453 19.0203 29.5709 19.0203C30.0966 19.0203 30.6008 19.2291 30.9725 19.6008C31.3443 19.9725 31.5531 20.4767 31.5531 21.0024V32.2663C31.5531 34.7426 29.5445 36.7512 27.0682 36.7512H4.53516C2.0588 36.7512 0.0502319 34.7426 0.0502319 32.2663V4.73298C0.0516327 3.54301 0.525326 2.40227 1.36725 1.56133C2.20918 0.720395 3.35048 0.248046 4.54045 0.248047H20.8099C21.3356 0.248047 21.8397 0.456879 22.2115 0.828603C22.5832 1.20033 22.792 1.70449 22.792 2.23019C22.792 2.75589 22.5832 3.26005 22.2115 3.63178C21.8397 4.0035 21.3356 4.21233 20.8099 4.21233H4.54045ZM9.54602 7.94669C9.3291 7.94669 9.11431 7.98941 8.91391 8.07242C8.7135 8.15543 8.53141 8.2771 8.37803 8.43049C8.22465 8.58387 8.10298 8.76596 8.01997 8.96636C7.93696 9.16677 7.89423 9.38156 7.89423 9.59847C7.89423 9.81539 7.93696 10.0302 8.01997 10.2306C8.10298 10.431 8.22465 10.6131 8.37803 10.7665C8.53141 10.9198 8.7135 11.0415 8.91391 11.1245C9.11431 11.2075 9.3291 11.2503 9.54602 11.2503H14.5516C14.9897 11.2503 15.4098 11.0762 15.7196 10.7665C16.0293 10.4567 16.2034 10.0366 16.2034 9.59847C16.2034 9.16039 16.0293 8.74026 15.7196 8.43049C15.4098 8.12072 14.9897 7.94669 14.5516 7.94669H9.54602ZM7.89423 17.1782C7.89423 16.2664 8.63423 15.5264 9.54602 15.5264H12.0488C12.4869 15.5264 12.907 15.7004 13.2168 16.0102C13.5266 16.32 13.7006 16.7401 13.7006 17.1782C13.7006 17.6163 13.5266 18.0364 13.2168 18.3462C12.907 18.6559 12.4869 18.83 12.0488 18.83H9.54602C9.10794 18.83 8.6878 18.6559 8.37803 18.3462C8.06826 18.0364 7.89423 17.6163 7.89423 17.1782ZM24.6288 19.9109C24.8955 19.8626 25.141 19.7334 25.3318 19.5409L36.1649 8.65762C36.4126 8.41193 36.6092 8.11963 36.7434 7.79757C36.8775 7.47551 36.9466 7.13008 36.9466 6.78119C36.9466 6.4323 36.8775 6.08686 36.7434 5.76481C36.6092 5.44275 36.4126 5.15045 36.1649 4.90476L33.3634 2.10333C33.1178 1.85562 32.8255 1.65901 32.5034 1.52483C32.1813 1.39066 31.8359 1.32158 31.487 1.32158C31.1381 1.32158 30.7927 1.39066 30.4706 1.52483C30.1486 1.65901 29.8563 1.85562 29.6106 2.10333L18.7326 12.9285C18.5367 13.1243 18.4073 13.3766 18.3626 13.65L17.4112 19.4167C17.3768 19.6257 17.3932 19.8398 17.4589 20.0411C17.5246 20.2424 17.6378 20.425 17.7888 20.5735C17.9399 20.7219 18.1244 20.8319 18.3268 20.8941C18.5292 20.9563 18.7436 20.969 18.9519 20.931L24.6288 19.9109Z" fill="#A3A3A3"/>
</g>
<defs>
<clipPath id="clip0_391_521">
<rect width="37" height="37" fill="white"/>
</clipPath>
</defs>
</svg>
