<svg width="22" height="22" viewBox="0 0 22 22" fill="none" xmlns="http://www.w3.org/2000/svg">
<g clip-path="url(#clip0_288_1623)">
<path d="M11.0237 0.0187988C5.05736 0.0187988 0.221237 4.85558 0.221237 10.8213C0.221237 16.787 5.05736 21.6237 11.0237 21.6237C16.9901 21.6237 21.8262 16.7869 21.8262 10.8212C21.8262 4.85551 16.99 0.0187988 11.0237 0.0187988ZM18.1121 5.24716C19.2733 6.72173 19.9843 8.56347 20.0403 10.568C17.6165 10.1434 15.5262 10.1305 13.7202 10.4168C13.4913 9.8915 13.2557 9.38111 13.014 8.8869C14.951 8.09024 16.6882 6.92827 18.1121 5.24716ZM16.8691 3.95629C15.5971 5.50035 14.0004 6.56302 12.1937 7.28618C11.0371 5.14326 9.84757 3.35743 8.89696 2.05374C9.57955 1.88695 10.2905 1.79788 11.023 1.79788C13.253 1.79713 15.2933 2.61203 16.8691 3.95629ZM7.14495 2.67551C8.06382 3.90223 9.28653 5.67923 10.4822 7.85797C7.94775 8.55406 5.11276 8.74176 2.24334 8.74984C2.87662 6.06547 4.70894 3.84016 7.14495 2.67551ZM2.00091 10.8205L2.00832 10.5288H2.0569C5.27198 10.5288 8.46407 10.3182 11.3261 9.47485C11.5394 9.909 11.7494 10.3546 11.9547 10.813C8.18938 11.9169 5.84184 14.3947 4.23297 16.7523C2.84487 15.1665 2.00091 13.0904 2.00091 10.8205ZM5.54816 17.9853C7.07131 15.6911 9.19398 13.4212 12.6481 12.4679C13.4549 14.5352 14.1132 16.7915 14.4616 19.1613C13.4016 19.6016 12.241 19.8446 11.0244 19.8446C8.96578 19.8446 7.0673 19.1512 5.54816 17.9853ZM16.1211 18.2621C15.7518 16.0969 15.1468 14.0316 14.4183 12.1169C15.9969 11.9163 17.8116 11.965 19.9154 12.3518C19.4948 14.7971 18.0891 16.9098 16.1211 18.2621Z" fill="white"/>
</g>
<defs>
<clipPath id="clip0_288_1623">
<rect width="21.6049" height="21.6049" fill="white" transform="translate(0.221237 0.0186768)"/>
</clipPath>
</defs>
</svg>
