<svg width="64" height="64" viewBox="0 0 64 64" fill="none" xmlns="http://www.w3.org/2000/svg">
<g clip-path="url(#clip0_354_1817)">
<path d="M56.6347 45.3333L52.016 53.3333C51.5846 54.0801 50.9786 54.7111 50.2499 55.1723C49.5212 55.6335 48.6915 55.9111 47.832 55.9813L47.3947 56H16.6027C15.936 55.9982 15.2996 55.88 14.6933 55.6453L14.2533 55.4533L20.0933 45.3333H56.6347ZM22.872 8.904L28.92 19.3813L10.6533 51.024L5.824 42.6667C5.3559 41.8559 5.10947 40.9362 5.10947 40C5.10947 39.0638 5.3559 38.1441 5.824 37.3333L21.2213 10.6667C21.6373 9.94667 22.2053 9.34933 22.872 8.904ZM38.1573 8C39.0197 7.99956 39.8692 8.20823 40.6332 8.60811C41.3972 9.008 42.0529 9.58717 42.544 10.296L42.7733 10.6667L58.1707 37.3333C58.568 38.0213 58.8 38.7733 58.864 39.5413L58.8853 40H46.9813L28.5067 8H38.1573ZM32 24.7147L40.8267 40H23.1733L32 24.7147Z" fill="white"/>
</g>
<defs>
<clipPath id="clip0_354_1817">
<rect width="64" height="64" fill="white"/>
</clipPath>
</defs>
</svg>
