<svg width="25" height="26" viewBox="0 0 25 26" fill="none" xmlns="http://www.w3.org/2000/svg">
<g clip-path="url(#clip0_288_1628)">
<path d="M12.6875 3.2354C15.893 3.2354 16.273 3.24768 17.5389 3.3053C18.7093 3.35866 19.3451 3.55422 19.7682 3.71856C20.2898 3.91092 20.7615 4.218 21.1486 4.61658C21.5474 5.00396 21.8542 5.47565 22.0466 5.99696C22.2109 6.42009 22.4065 7.05559 22.4599 8.22627C22.5175 9.4922 22.5298 9.87184 22.5298 13.0776C22.5298 16.2834 22.5175 16.663 22.4599 17.9289C22.4065 19.0994 22.2109 19.7351 22.0466 20.1583C21.6427 21.2051 20.8151 22.0327 19.7682 22.4367C19.3451 22.601 18.7096 22.7966 17.5389 22.8499C16.2732 22.9081 15.8933 22.9203 12.6875 22.9203C9.48178 22.9203 9.10187 22.9081 7.83621 22.8502C6.6658 22.7968 6.03003 22.6013 5.6069 22.4369C5.08532 22.2446 4.61364 21.9375 4.22652 21.5389C3.82767 21.1515 3.52086 20.6798 3.3285 20.1585C3.16416 19.7354 2.9686 19.0999 2.91524 17.9292C2.85761 16.6633 2.84534 16.2836 2.84534 13.0779C2.84534 9.87211 2.85735 9.49246 2.91498 8.22627C2.96833 7.05586 3.16389 6.42009 3.32823 5.99696C3.52059 5.47538 3.82767 5.0037 4.22652 4.61658C4.6139 4.21773 5.08559 3.91092 5.6069 3.71856C6.03003 3.55422 6.66553 3.35866 7.83621 3.3053C9.10214 3.24741 9.48178 3.23514 12.6875 3.2354ZM12.6875 1.07199C9.42709 1.07199 9.0181 1.08586 7.73776 1.14429C6.45983 1.20272 5.58716 1.40548 4.8236 1.70242C4.02243 2.00389 3.29675 2.47638 2.69727 3.08707C2.08632 3.68681 1.61383 4.41249 1.31209 5.21339C1.01542 5.97695 0.812658 6.84963 0.754498 8.12756C0.695804 9.40816 0.681931 9.81715 0.681931 13.0776C0.681931 16.3381 0.695804 16.7471 0.754498 18.0274C0.812925 19.3053 1.01569 20.178 1.31263 20.9416C1.6141 21.7427 2.08659 22.4684 2.69727 23.0679C3.29702 23.6786 4.02269 24.1511 4.8236 24.4525C5.58716 24.7492 6.45983 24.9522 7.73776 25.0107C9.01836 25.0693 9.42709 25.0832 12.6875 25.0832C15.948 25.0832 16.357 25.0693 17.6373 25.0109C18.9153 24.9525 19.7879 24.7497 20.5515 24.4528C22.164 23.829 23.439 22.5543 24.0627 20.9416C24.3594 20.178 24.5624 19.3053 24.6209 18.0274C24.6793 16.7471 24.6932 16.3381 24.6932 13.0776C24.6932 9.81715 24.6793 9.40816 24.6209 8.12782C24.5624 6.84989 24.3597 5.97722 24.0627 5.21366C23.7613 4.41249 23.2888 3.68681 22.6781 3.08733C22.0783 2.47638 21.3527 2.00389 20.5515 1.70242C19.7879 1.40575 18.9153 1.20299 17.6373 1.14483C16.357 1.08586 15.948 1.07199 12.6875 1.07199Z" fill="white"/>
<path d="M12.6875 6.9126C9.28275 6.9126 6.52252 9.67282 6.52252 13.0776C6.52252 16.4824 9.28275 19.2426 12.6875 19.2426C16.0923 19.2426 18.8526 16.4824 18.8526 13.0776C18.8526 9.67282 16.0923 6.9126 12.6875 6.9126ZM12.6875 17.0795C10.4774 17.0795 8.68567 15.2877 8.68567 13.0776C8.68567 10.8675 10.4774 9.07574 12.6875 9.07574C14.8976 9.07574 16.6894 10.8675 16.6894 13.0776C16.6894 15.2877 14.8976 17.0795 12.6875 17.0795Z" fill="white"/>
<path d="M19.0959 8.10995C19.8915 8.10995 20.5365 7.46494 20.5365 6.66928C20.5365 5.87362 19.8915 5.22861 19.0959 5.22861C18.3002 5.22861 17.6552 5.87362 17.6552 6.66928C17.6552 7.46494 18.3002 8.10995 19.0959 8.10995Z" fill="white"/>
</g>
<defs>
<clipPath id="clip0_288_1628">
<rect width="24.3056" height="24.3056" fill="white" transform="translate(0.548386 0.938446)"/>
</clipPath>
</defs>
</svg>
