<svg width="21" height="21" viewBox="0 0 21 21" fill="none" xmlns="http://www.w3.org/2000/svg">
<g clip-path="url(#clip0_288_1617)">
<path d="M1.31472 7.21923H5.29706V20.8384H1.31472V7.21923ZM3.30599 0.449371C4.5788 0.449371 5.61318 1.54916 5.61318 2.90472C5.61318 4.25892 4.5788 5.35871 3.30599 5.35871C2.0302 5.35871 0.99881 4.25892 0.99881 2.90472C0.99881 1.54916 2.0302 0.449371 3.30599 0.449371Z" fill="white"/>
<path d="M7.794 7.21923H11.6126V9.08157H11.6671C12.1985 8.01037 13.4976 6.88199 15.4338 6.88199C19.4652 6.88199 20.2093 9.70182 20.2093 13.3688V20.8384H16.23V14.2154C16.23 12.6356 16.2042 10.6042 14.1612 10.6042C12.0895 10.6042 11.7734 12.326 11.7734 14.1019V20.8384H7.794V7.21923Z" fill="white"/>
</g>
<defs>
<clipPath id="clip0_288_1617">
<rect width="19.446" height="20.6757" fill="white" transform="translate(0.89196 0.317627)"/>
</clipPath>
</defs>
</svg>
